<svg width="199" height="183" viewBox="0 0 199 183" fill="none" xmlns="http://www.w3.org/2000/svg">
<path d="M101.281 175.651C98.2656 178.333 93.6354 180.26 88.6146 180.906C83.5938 181.557 78.2344 180.958 73.9375 179.245C77.8698 181.427 83.2292 182.573 88.5365 182.339C93.8438 182.104 99.0208 180.521 102.635 177.995C105.214 179.687 109.349 180.365 112.964 179.635C117.021 178.828 118.818 176.849 120.693 174.719C118.531 176.693 115.411 177.839 111.661 178.073C107.839 178.333 103.911 177.396 101.281 175.651Z" fill="#E16A13"/>
<path d="M86.6874 147.818C89.9166 148.984 93.6614 149.557 95.7135 152.266C97.4062 154.5 97.3541 157.807 95.8958 160.198C94.4426 162.594 91.7343 164.104 88.9531 164.464C85.0208 164.984 80.8853 163.271 78.4687 160.146C76.0468 157.026 75.3958 152.604 76.8801 148.906C73.4739 155.828 76.0728 163.479 80.2864 167.667C84.4791 171.828 91.0051 172.167 96.9114 172.245C102.167 172.323 107.578 172.375 112.599 170.969L114.5 170.396C115.359 170.135 116.167 169.802 116.922 169.359C116.943 169.359 116.943 169.333 116.943 169.333C121.891 165.141 127.588 160.823 125.479 153.333C125.141 156.635 123.213 159.885 120.146 161.161C117.073 162.438 112.99 161.135 111.766 158.068C110.417 154.682 112.729 150.911 115.542 148.62C118.349 146.333 121.812 144.745 124.073 141.911C109.922 144.641 95.1197 144.12 81.1978 140.375C80.1301 143.651 83.4895 146.646 86.6874 147.818Z" fill="#E16A13"/>
<mask id="mask0_26_4" style="mask-type:luminance" maskUnits="userSpaceOnUse" x="105" y="0" width="94" height="141">
<path d="M105.323 0H198.656V140.969H105.323V0Z" fill="white"/>
</mask>
<g mask="url(#mask0_26_4)">
<path d="M129.797 31.4166C135.911 37.7395 138.307 47.3906 135.885 55.8489C133.151 65.3177 125.245 72.2395 120.224 80.7187C114.526 90.3437 112.703 102.182 115.229 113.083C117.75 123.984 124.62 133.818 133.958 139.958C122.203 115.427 123.995 99.7083 131.958 82.2291C130.526 92.375 135.338 103.146 143.849 108.844C135.625 97.4218 136.354 80.4062 145.562 69.7395C164.036 74.8385 185.109 69.0885 198.427 55.276C184.953 45.3906 165.958 43.6198 150.896 50.9062C160.312 45.3645 170.021 39.5625 176.365 30.6614C182.713 21.7656 184.875 8.88538 178.474 0.041626C180.088 8.3385 177.484 17.3437 171.682 23.4843C165.88 29.6198 157.036 32.7187 148.661 31.5468C141.141 30.5052 134.453 26.3177 127.38 23.6145C120.276 20.9062 111.583 19.8645 105.63 24.5468C114.109 22.3645 123.682 25.0937 129.797 31.4166Z" fill="#E16A13"/>
</g>
<mask id="mask1_26_4" style="mask-type:luminance" maskUnits="userSpaceOnUse" x="0" y="0" width="94" height="141">
<path d="M0 0H93.3229V140.969H0V0Z" fill="white"/>
</mask>
<g mask="url(#mask1_26_4)">
<path d="M52.8646 69.7395C62.0521 80.3802 62.8073 97.4218 54.5833 108.844C63.0885 103.146 67.9063 92.375 66.474 82.2291C74.4323 99.7083 76.2292 115.427 64.4688 139.958C73.8073 133.818 80.6771 123.984 83.2031 113.083C85.724 102.182 83.9063 90.3437 78.2083 80.7187C73.1875 72.2395 65.276 65.2916 62.5469 55.8489C60.099 47.4166 62.5208 37.7395 68.6302 31.4166C74.7448 25.0937 84.3229 22.3906 92.8281 24.5208C86.8438 19.8385 78.1563 20.8802 71.0781 23.5885C63.974 26.2916 57.3177 30.4791 49.7969 31.5208C41.4167 32.6927 32.5729 29.5937 26.7708 23.4583C20.9167 17.3437 18.3177 8.3385 19.9271 0.041626C13.5313 8.88538 15.6875 21.7656 22.0365 30.6614C28.4115 39.5364 38.0885 45.3385 47.5052 50.9062C32.4688 43.6198 13.4792 45.3645 0 55.276C13.2969 69.0625 34.3698 74.8385 52.8646 69.7395Z" fill="#E16A13"/>
</g>
</svg>
